{
  "source": "C:\\Users\\Peter\\Desktop\\stuff\\MIUN\\quantitative_research\\video_compression\\videos\\UVG\\Bosphorus_1920x1080_120fps_420_8bit_YUV.y4m",
  "output": "C:\\Users\\Peter\\Desktop\\stuff\\MIUN\\quantitative_research\\video_compression\\compressed_videos\\UVG\\h264\\8\\Bosphorus_1920x1080_120fps_420_8bit_YUV_h264.mp4",
  "codec": "h264",
  "ok": "[yuv4mpegpipe @ 0000022f7e4c6600] Stream #0: not enough frames to estimate rate; consider increasing probesize\nInput #0, yuv4mpegpipe, from 'C:\\Users\\Peter\\Desktop\\stuff\\MIUN\\quantitative_research\\video_compression\\videos\\UVG\\Bosphorus_1920x1080_120fps_420_8bit_YUV.y4m':\n  Duration: 00:00:05.00, start: 0.000000, bitrate: 2985989 kb/s\n  Stream #0:0: Video: rawvideo (I420 / 0x30323449), yuv420p(progressive), 1920x1080, 120 fps, 120 tbr, 120 tbn\n[out#0/mp4 @ 0000022f7e4ca240] Codec AVOption b:a (set bitrate (in bits/s)) has not been used for any stream. The most likely reason is either wrong type (e.g. a video option with no video streams) or that it is a private option of some decoder which was not actually used for any stream.\nStream mapping:\n  Stream #0:0 -> #0:0 (rawvideo (native) -> h264 (libx264))\nPress [q] to stop, [?] for help\n[libx264 @ 0000022f7e4cca80] using cpu capabilities: MMX2 SSE2Fast SSSE3 SSE4.2 AVX FMA3 BMI2 AVX2\n[libx264 @ 0000022f7e4cca80] profile High, level 5.1, 4:2:0, 8-bit\n[libx264 @ 0000022f7e4cca80] 264 - core 165 r3222 b35605a - H.264/MPEG-4 AVC codec - Copyleft 2003-2025 - http://www.videolan.org/x264.html - options: cabac=1 ref=5 deblock=1:0:0 analyse=0x3:0x113 me=hex subme=8 psy=1 psy_rd=1.00:0.00 mixed_ref=1 me_range=16 chroma_me=1 trellis=2 8x8dct=1 cqm=0 deadzone=21,11 fast_pskip=1 chroma_qp_offset=-2 threads=18 lookahead_threads=3 sliced_threads=0 nr=0 decimate=1 interlaced=0 bluray_compat=0 constrained_intra=0 bframes=3 b_pyramid=2 b_adapt=1 b_bias=0 direct=3 weightb=1 open_gop=0 weightp=2 keyint=250 keyint_min=25 scenecut=40 intra_refresh=0 rc_lookahead=50 rc=cbr mbtree=1 bitrate=8000 ratetol=1.0 qcomp=0.60 qpmin=0 qpmax=69 qpstep=4 vbv_maxrate=8000 vbv_bufsize=8000 nal_hrd=none filler=0 ip_ratio=1.40 aq=1:1.00\nOutput #0, mp4, to 'C:\\Users\\Peter\\Desktop\\stuff\\MIUN\\quantitative_research\\video_compression\\compressed_videos\\UVG\\h264\\8\\Bosphorus_1920x1080_120fps_420_8bit_YUV_h264.mp4':\n  Metadata:\n    encoder         : Lavf62.3.100\n  Stream #0:0: Video: h264 (avc1 / 0x31637661), yuv420p(tv, progressive), 1920x1080, q=2-31, 8000 kb/s, 120 fps, 15360 tbn\n    Metadata:\n      encoder         : Lavc62.11.100 libx264\n    Side data:\n      cpb: bitrate max/min/avg: 8000000/0/8000000 buffer size: 8000000 vbv_delay: N/A\nframe=    0 fps=0.0 q=0.0 size=       0KiB time=N/A bitrate=N/A speed=N/A elapsed=0:00:00.53    \nframe=    5 fps=4.6 q=37.0 size=       0KiB time=N/A bitrate=N/A speed=N/A elapsed=0:00:01.09    \nframe=   30 fps= 18 q=33.0 size=       0KiB time=00:00:00.22 bitrate=   1.7kbits/s speed=0.131x elapsed=0:00:01.71    \nframe=   49 fps= 21 q=33.0 size=     256KiB time=00:00:00.39 bitrate=5355.4kbits/s speed=0.172x elapsed=0:00:02.28    \nframe=   73 fps= 26 q=33.0 size=     256KiB time=00:00:00.59 bitrate=3545.1kbits/s speed=0.209x elapsed=0:00:02.83    \nframe=   97 fps= 29 q=33.0 size=     512KiB time=00:00:00.79 bitrate=5298.6kbits/s speed=0.234x elapsed=0:00:03.38    \nframe=  120 fps= 31 q=33.0 size=     768KiB time=00:00:00.98 bitrate=6398.5kbits/s speed=0.25x elapsed=0:00:03.92    \nframe=  137 fps= 31 q=32.0 size=     768KiB time=00:00:01.12 bitrate=5592.7kbits/s speed=0.252x elapsed=0:00:04.46    \nframe=  157 fps= 32 q=32.0 size=    1024KiB time=00:00:01.28 bitrate=6536.9kbits/s speed=0.258x elapsed=0:00:04.98    \nframe=  175 fps= 31 q=32.0 size=    1024KiB time=00:00:01.42 bitrate=5887.0kbits/s speed=0.255x elapsed=0:00:05.57    \nframe=  201 fps= 33 q=32.0 size=    1280KiB time=00:00:01.65 bitrate=6323.3kbits/s speed=0.271x elapsed=0:00:06.12    \nframe=  221 fps= 33 q=32.0 size=    1536KiB time=00:00:01.82 bitrate=6895.0kbits/s speed=0.272x elapsed=0:00:06.70    \nframe=  232 fps= 32 q=32.0 size=    1536KiB time=00:00:01.91 bitrate=6565.2kbits/s speed=0.265x elapsed=0:00:07.24    \nframe=  255 fps= 33 q=33.0 size=    1792KiB time=00:00:02.10 bitrate=6963.1kbits/s speed=0.272x elapsed=0:00:07.76    \nframe=  282 fps= 34 q=33.0 size=    2048KiB time=00:00:02.28 bitrate=7347.9kbits/s speed=0.275x elapsed=0:00:08.29    \nframe=  303 fps= 34 q=33.0 size=    2304KiB time=00:00:02.50 bitrate=7524.8kbits/s speed=0.282x elapsed=0:00:08.88    \nframe=  327 fps= 35 q=33.0 size=    2304KiB time=00:00:02.67 bitrate=7056.0kbits/s speed=0.285x elapsed=0:00:09.40    \nframe=  351 fps= 35 q=32.0 size=    2560KiB time=00:00:02.90 bitrate=7231.7kbits/s speed=0.291x elapsed=0:00:09.96    \nframe=  375 fps= 36 q=32.0 size=    2816KiB time=00:00:03.10 bitrate=7421.7kbits/s speed=0.296x elapsed=0:00:10.51    \nframe=  401 fps= 36 q=32.0 size=    3072KiB time=00:00:03.30 bitrate=7606.9kbits/s speed=0.297x elapsed=0:00:11.13    \nframe=  423 fps= 36 q=32.0 size=    3072KiB time=00:00:03.50 bitrate=7173.3kbits/s speed= 0.3x elapsed=0:00:11.68    \nframe=  443 fps= 36 q=32.0 size=    3328KiB time=00:00:03.67 bitrate=7418.6kbits/s speed= 0.3x elapsed=0:00:12.23    \nframe=  471 fps= 37 q=32.0 size=    3584KiB time=00:00:03.89 bitrate=7544.5kbits/s speed=0.305x elapsed=0:00:12.77    \nframe=  482 fps= 36 q=32.0 size=    3584KiB time=00:00:04.00 bitrate=7340.1kbits/s speed= 0.3x elapsed=0:00:13.34    \nframe=  505 fps= 36 q=33.0 size=    3840KiB time=00:00:04.19 bitrate=7504.8kbits/s speed=0.302x elapsed=0:00:13.86    \nframe=  528 fps= 37 q=33.0 size=    4096KiB time=00:00:04.34 bitrate=7728.6kbits/s speed=0.301x elapsed=0:00:14.42    \nframe=  553 fps= 37 q=33.0 size=    4352KiB time=00:00:04.59 bitrate=7764.5kbits/s speed=0.306x elapsed=0:00:15.00    \nframe=  573 fps= 37 q=32.0 size=    4352KiB time=00:00:04.75 bitrate=7492.5kbits/s speed=0.306x elapsed=0:00:15.54    \n[mp4 @ 0000022f7e4ca340] Starting second pass: moving the moov atom to the beginning of the file\n[out#0/mp4 @ 0000022f7e4ca240] video:4763KiB audio:0KiB subtitle:0KiB other streams:0KiB global headers:0KiB muxing overhead: 0.166219%\nframe=  600 fps= 37 q=-1.0 Lsize=    4771KiB time=00:00:04.98 bitrate=7842.8kbits/s speed=0.31x elapsed=0:00:16.08    \n[libx264 @ 0000022f7e4cca80] frame I:3     Avg QP:26.89  size: 76961\n[libx264 @ 0000022f7e4cca80] frame P:151   Avg QP:27.80  size: 21897\n[libx264 @ 0000022f7e4cca80] frame B:446   Avg QP:31.28  size:  3003\n[libx264 @ 0000022f7e4cca80] consecutive B-frames:  0.8%  0.0%  0.5% 98.7%\n[libx264 @ 0000022f7e4cca80] mb I  I16..4: 19.5% 71.7%  8.9%\n[libx264 @ 0000022f7e4cca80] mb P  I16..4:  0.6%  0.6%  0.0%  P16..4: 38.5% 12.2%  6.6%  0.0%  0.0%    skip:41.5%\n[libx264 @ 0000022f7e4cca80] mb B  I16..4:  0.0%  0.0%  0.0%  B16..8: 37.3%  0.5%  0.1%  direct: 0.3%  skip:61.8%  L0:34.7% L1:64.0% BI: 1.3%\n[libx264 @ 0000022f7e4cca80] 8x8 transform intra:63.3% inter:78.1%\n[libx264 @ 0000022f7e4cca80] direct mvs  spatial:97.8% temporal:2.2%\n[libx264 @ 0000022f7e4cca80] coded y,uvDC,uvAC intra: 57.1% 41.8% 15.6% inter: 6.0% 2.9% 0.1%\n[libx264 @ 0000022f7e4cca80] i16 v,h,dc,p: 12% 76%  2%  9%\n[libx264 @ 0000022f7e4cca80] i8 v,h,dc,ddl,ddr,vr,hd,vl,hu:  4% 24%  5%  7% 12%  8% 17%  6% 17%\n[libx264 @ 0000022f7e4cca80] i4 v,h,dc,ddl,ddr,vr,hd,vl,hu:  3% 23%  2%  8% 12%  9% 17%  6% 20%\n[libx264 @ 0000022f7e4cca80] i8c dc,h,v,p: 22% 63%  8%  7%\n[libx264 @ 0000022f7e4cca80] Weighted P-Frames: Y:0.0% UV:0.0%\n[libx264 @ 0000022f7e4cca80] ref P L0: 63.7% 20.7% 11.8%  2.0%  1.9%\n[libx264 @ 0000022f7e4cca80] ref B L0: 95.3%  3.6%  0.9%  0.2%\n[libx264 @ 0000022f7e4cca80] ref B L1: 97.6%  2.4%\n[libx264 @ 0000022f7e4cca80] kb/s:7802.45\n",
  "seconds": 16.251745462417603,
  "probe_out": {}
}